<svg xmlns="http://www.w3.org/2000/svg" viewBox="0 0 486.39 486.39"><title>Twitter</title><g><path d="M243.2,0C108.89,0,0,108.89,0,243.2s108.89,243.2,243.2,243.2,243.2-108.89,243.2-243.2S377.5,0,243.2,0Zm121,188.6.18,7.75c0,79.16-60.22,170.36-170.36,170.36a169.45,169.45,0,0,1-91.78-26.9,123.13,123.13,0,0,0,14.29.85A120.15,120.15,0,0,0,190.88,315a60,60,0,0,1-55.93-41.59,61.57,61.57,0,0,0,27.05-1,59.94,59.94,0,0,1-48-58.7v-.76a59.79,59.79,0,0,0,27.12,7.51,60,60,0,0,1-18.54-79.92A169.93,169.93,0,0,0,246,203.1,59.92,59.92,0,0,1,348,148.5,121.25,121.25,0,0,0,386,134a60,60,0,0,1-26.33,33.13,120,120,0,0,0,34.38-9.42A121,121,0,0,1,364.19,188.6Z"/></g></svg>
